<svg width="79" height="26" viewBox="0 0 79 26" fill="none" xmlns="http://www.w3.org/2000/svg">
<g filter="url(#filter0_d_618_24)">
<mask id="path-1-inside-1_618_24" fill="white">
<rect y="2" width="77" height="22" rx="1"/>
</mask>
<rect y="2" width="77" height="22" rx="1" fill="#EEEEEE"/>
<rect y="2" width="77" height="22" rx="1" stroke="#474747" stroke-width="4" mask="url(#path-1-inside-1_618_24)"/>
</g>
<path d="M5.22 7.34C5.22 6.76667 5.64 6.48 6.48 6.48C6.84 6.48 7.52667 6.49333 8.54 6.52C9.66 6.57333 10.5067 6.6 11.08 6.6C11.5467 6.6 12.1133 6.57333 12.78 6.52C13.2333 6.49333 13.52 6.48 13.64 6.48C14.3733 6.50667 14.9933 6.64 15.5 6.88C15.6467 6.94667 15.7667 7.02667 15.86 7.12C15.9533 7.21333 16 7.36667 16 7.58C16 7.87333 15.9067 8.12667 15.72 8.34C15.5333 8.54 15.3067 8.64 15.04 8.64C14.7467 8.64 14.32 8.6 13.76 8.52C13.2667 8.42667 12.8333 8.38 12.46 8.38C12.1 8.38 11.8267 8.38667 11.64 8.4C11.6 8.84 11.58 9.89333 11.58 11.56C11.58 13.5467 11.64 15.56 11.76 17.6L11.8 18.18C11.8 18.7267 11.4867 19 10.86 19C10.3667 19 10.0333 18.8867 9.86 18.66C9.68667 18.42 9.6 18.06 9.6 17.58C9.6 16.6333 9.57333 15.4533 9.52 14.04C9.46667 12.8667 9.44 12.0333 9.44 11.54C9.44 11.2067 9.48 10.1867 9.56 8.48L7.22 8.5C6.47333 8.5 5.95333 8.43333 5.66 8.3C5.36667 8.15333 5.22 7.83333 5.22 7.34ZM23.2183 12.58C23.3249 12.7667 23.4116 13.04 23.4783 13.4C23.5449 13.7467 23.5783 14.06 23.5783 14.34C23.5783 14.86 23.4649 15.6 23.2383 16.56C22.3183 18.24 20.9583 19.08 19.1583 19.08C18.4916 19.08 17.8116 18.86 17.1183 18.42C16.4249 17.98 15.9449 17.4733 15.6783 16.9C15.3183 15.7533 15.1383 15.0267 15.1383 14.72C15.1383 14.1867 15.2516 13.62 15.4783 13.02C15.7183 12.42 16.0183 11.9 16.3783 11.46C16.6049 11.1533 17.0116 10.8933 17.5983 10.68C18.1849 10.4533 18.7183 10.34 19.1983 10.34C20.1316 10.34 20.9249 10.52 21.5783 10.88C22.2316 11.2267 22.7783 11.7933 23.2183 12.58ZM21.4783 15.8C21.5449 15.6267 21.5783 15.18 21.5783 14.46C21.5783 14.0733 21.5049 13.6933 21.3583 13.32C21.2249 12.9467 21.0249 12.6267 20.7583 12.36C20.7316 12.3333 20.6583 12.2933 20.5383 12.24C20.4183 12.1733 20.2516 12.1133 20.0383 12.06C19.8383 11.9933 19.6049 11.96 19.3383 11.96C18.5916 11.96 18.0449 12.26 17.6983 12.86C17.3516 13.46 17.1783 14.14 17.1783 14.9C17.1783 15.0333 17.2116 15.2867 17.2783 15.66C17.3583 16.0333 17.4249 16.2667 17.4783 16.36C17.5183 16.4533 17.6183 16.5867 17.7783 16.76C17.9516 16.92 18.1583 17.0667 18.3983 17.2C18.6516 17.32 18.9116 17.38 19.1783 17.38C19.7783 17.38 20.2583 17.24 20.6183 16.96C20.9783 16.6667 21.2649 16.28 21.4783 15.8ZM33.4127 12.58C33.5193 12.7667 33.606 13.04 33.6727 13.4C33.7393 13.7467 33.7727 14.06 33.7727 14.34C33.7727 14.7 33.7327 15.1 33.6527 15.54C33.5727 15.98 33.4993 16.32 33.4327 16.56C32.5127 18.24 31.1527 19.08 29.3527 19.08C28.686 19.08 28.006 18.86 27.3127 18.42C26.6193 17.98 26.1393 17.4733 25.8727 16.9C25.5127 15.7667 25.3327 15.04 25.3327 14.72C25.3327 14.1867 25.446 13.62 25.6727 13.02C25.9127 12.42 26.2127 11.9 26.5727 11.46C26.8127 11.1533 27.226 10.8933 27.8127 10.68C28.3993 10.4533 28.9327 10.34 29.4127 10.34C30.346 10.34 31.1327 10.52 31.7727 10.88C32.426 11.2267 32.9727 11.7933 33.4127 12.58ZM31.6727 15.8C31.7393 15.6667 31.7727 15.22 31.7727 14.46C31.7727 14.0733 31.6993 13.6933 31.5527 13.32C31.4193 12.9467 31.2193 12.6267 30.9527 12.36C30.926 12.3333 30.8527 12.2933 30.7327 12.24C30.6127 12.1733 30.446 12.1133 30.2327 12.06C30.0327 11.9933 29.7993 11.96 29.5327 11.96C28.786 11.96 28.2393 12.26 27.8927 12.86C27.546 13.46 27.3727 14.14 27.3727 14.9C27.3727 15.02 27.4127 15.2667 27.4927 15.64C27.5727 16.0133 27.6327 16.2533 27.6727 16.36C27.7793 16.5467 27.9927 16.7667 28.3127 17.02C28.646 17.26 29.006 17.38 29.3927 17.38C29.9927 17.38 30.466 17.24 30.8127 16.96C31.1727 16.6667 31.4593 16.28 31.6727 15.8ZM37.9289 15.9C37.9289 16.4067 38.0022 16.8 38.1489 17.08C38.3089 17.3467 38.5089 17.48 38.7489 17.48C38.8822 17.48 39.0089 17.4733 39.1289 17.46C39.2489 17.4333 39.3689 17.42 39.4889 17.42C39.6222 17.42 39.7356 17.4867 39.8289 17.62C39.9356 17.7533 39.9889 17.9 39.9889 18.06C39.9889 18.38 39.8356 18.6333 39.5289 18.82C39.2356 18.9933 38.8356 19.08 38.3289 19.08C37.9689 19.08 37.6022 18.9733 37.2289 18.76C36.8689 18.5333 36.5689 18.1867 36.3289 17.72C36.0889 17.24 35.9689 16.6467 35.9689 15.94C35.9689 14.42 35.9956 13.1333 36.0489 12.08C36.1156 10.8267 36.1489 9.24667 36.1489 7.34C36.1489 6.74 36.1822 6.32 36.2489 6.08C36.3289 5.89333 36.4556 5.75333 36.6289 5.66C36.8156 5.55333 37.0089 5.5 37.2089 5.5C37.4089 5.5 37.5822 5.53333 37.7289 5.6C37.8889 5.66667 37.9956 5.77333 38.0489 5.92C38.1022 6.08 38.1356 6.24 38.1489 6.4C38.1756 6.54667 38.1889 6.76 38.1889 7.04C38.1889 7.58667 38.1689 8.11333 38.1289 8.62C38.1022 9.23333 38.0889 9.68 38.0889 9.96C37.9822 12.3067 37.9289 14.2867 37.9289 15.9ZM42.333 6.16C42.7996 6.2 43.1996 6.32667 43.533 6.54C43.8796 6.74 44.053 7.04667 44.053 7.46C44.053 7.76667 43.913 8.01333 43.633 8.2C43.353 8.37333 43.0063 8.46 42.593 8.46C42.2063 8.46 41.9396 8.36 41.793 8.16C41.6463 7.96 41.573 7.75333 41.573 7.54C41.573 7.15333 41.6196 6.82667 41.713 6.56C41.8063 6.28 42.013 6.14667 42.333 6.16ZM41.933 14.42V13.84C41.933 13.1733 41.8996 12.5667 41.833 12.02C41.7796 11.46 41.7463 11.1133 41.733 10.98C41.7463 10.8333 41.8463 10.6933 42.033 10.56C42.2196 10.4267 42.3863 10.36 42.533 10.36C42.7863 10.36 43.0396 10.4133 43.293 10.52C43.5596 10.6133 43.7263 10.7333 43.793 10.88C43.8596 11.3733 43.893 11.7533 43.893 12.02C43.893 12.6067 43.9196 13.5667 43.973 14.9L43.993 15.68L44.033 16.44C44.0463 16.6533 44.0596 16.9067 44.073 17.2C44.0863 17.4933 44.093 17.8267 44.093 18.2C44.093 18.4533 43.9663 18.6667 43.713 18.84C43.473 19.0133 43.2196 19.1 42.953 19.1C42.5663 19.1 42.293 19.0133 42.133 18.84C41.9863 18.6667 41.913 18.3933 41.913 18.02L41.933 14.42ZM54.7111 18.9C54.4311 18.9 54.1644 18.82 53.9111 18.66C53.6711 18.4867 53.4578 18.3067 53.2711 18.12C53.0844 17.92 52.9578 17.7867 52.8911 17.72C52.6111 18.12 52.2044 18.4467 51.6711 18.7C51.1378 18.9533 50.6244 19.08 50.1311 19.08C49.3711 19.08 48.6978 18.92 48.1111 18.6C47.5244 18.28 47.0711 17.8467 46.7511 17.3C46.4311 16.74 46.2711 16.12 46.2711 15.44C46.2711 14.8 46.3444 14.1867 46.4911 13.6C46.6511 13 46.8644 12.5 47.1311 12.1C47.4911 11.5933 47.9711 11.1933 48.5711 10.9C49.1844 10.6067 49.7911 10.46 50.3911 10.46C50.7511 10.46 51.0911 10.5267 51.4111 10.66C51.7311 10.7933 52.0111 10.96 52.2511 11.16C52.2511 10.28 52.2444 9.72667 52.2311 9.5V9.06C52.2311 7.80667 52.3111 6.89333 52.4711 6.32C52.6178 5.76 52.9778 5.48 53.5511 5.48C53.8578 5.48 54.0844 5.54667 54.2311 5.68C54.3778 5.81333 54.4511 6.06667 54.4511 6.44C54.4511 6.57333 54.4178 6.94 54.3511 7.54C54.2044 9.03333 54.1311 10.5267 54.1311 12.02C54.1311 13.2733 54.1511 14.2067 54.1911 14.82C54.2444 15.42 54.3444 15.9 54.4911 16.26C54.6511 16.62 54.8978 16.94 55.2311 17.22C55.4311 17.38 55.5711 17.5133 55.6511 17.62C55.7444 17.7267 55.7911 17.8667 55.7911 18.04C55.7911 18.2533 55.6844 18.4533 55.4711 18.64C55.2578 18.8133 55.0044 18.9 54.7111 18.9ZM50.0711 17.46C50.7778 17.46 51.2978 17.24 51.6311 16.8C51.9778 16.3467 52.1511 15.7733 52.1511 15.08L52.1311 13.96C52.1178 13.7467 52.1111 13.46 52.1111 13.1C51.6178 12.5133 51.0844 12.22 50.5111 12.22C50.1244 12.22 49.7578 12.32 49.4111 12.52C49.0778 12.72 48.8044 13.0133 48.5911 13.4C48.3644 13.84 48.2511 14.5067 48.2511 15.4C48.2511 16.0133 48.4311 16.5133 48.7911 16.9C49.1511 17.2733 49.5778 17.46 50.0711 17.46ZM59.3742 15.9C59.3742 16.4067 59.4476 16.8 59.5942 17.08C59.7542 17.3467 59.9542 17.48 60.1942 17.48C60.3276 17.48 60.4542 17.4733 60.5742 17.46C60.6942 17.4333 60.8142 17.42 60.9342 17.42C61.0676 17.42 61.1809 17.4867 61.2742 17.62C61.3809 17.7533 61.4342 17.9 61.4342 18.06C61.4342 18.38 61.2809 18.6333 60.9742 18.82C60.6809 18.9933 60.2809 19.08 59.7742 19.08C59.4142 19.08 59.0476 18.9733 58.6742 18.76C58.3142 18.5333 58.0142 18.1867 57.7742 17.72C57.5342 17.24 57.4142 16.6467 57.4142 15.94C57.4142 14.42 57.4409 13.1333 57.4942 12.08C57.5609 10.8267 57.5942 9.24667 57.5942 7.34C57.5942 6.74 57.6276 6.32 57.6942 6.08C57.7742 5.89333 57.9009 5.75333 58.0742 5.66C58.2609 5.55333 58.4542 5.5 58.6542 5.5C58.8542 5.5 59.0276 5.53333 59.1742 5.6C59.3342 5.66667 59.4409 5.77333 59.4942 5.92C59.5476 6.08 59.5809 6.24 59.5942 6.4C59.6209 6.54667 59.6342 6.76 59.6342 7.04C59.6342 7.58667 59.6142 8.11333 59.5742 8.62C59.5476 9.23333 59.5342 9.68 59.5342 9.96C59.4276 12.3067 59.3742 14.2867 59.3742 15.9ZM62.6383 14.76C62.6383 14.2533 62.7316 13.7467 62.9183 13.24C63.1049 12.72 63.3516 12.2467 63.6583 11.82C63.9649 11.3933 64.4516 11.0467 65.1183 10.78C65.7849 10.5 66.3783 10.36 66.8983 10.36C67.4316 10.36 67.9716 10.4333 68.5183 10.58C69.0783 10.7267 69.4649 10.9533 69.6783 11.26C70.1716 11.9533 70.4183 12.6333 70.4183 13.3C70.4183 13.66 70.3383 13.9667 70.1783 14.22C70.0316 14.4733 69.8183 14.7467 69.5383 15.04C69.3116 15.28 68.9516 15.44 68.4583 15.52C67.9783 15.6 67.4983 15.64 67.0183 15.64C66.7116 15.64 66.3383 15.6133 65.8983 15.56C65.4583 15.4933 65.0316 15.4133 64.6183 15.32C64.6449 15.5867 64.7116 15.8467 64.8183 16.1C64.9249 16.3533 65.0516 16.5467 65.1983 16.68C65.4649 16.9333 65.7383 17.0933 66.0183 17.16C66.3116 17.2267 66.6849 17.26 67.1383 17.26C67.6183 17.26 68.0649 17.18 68.4783 17.02C68.8116 16.9 69.0849 16.84 69.2983 16.84C69.5516 16.84 69.7449 16.92 69.8783 17.08C70.0116 17.2267 70.0783 17.42 70.0783 17.66C70.0783 17.9933 69.8849 18.2667 69.4983 18.48C69.1116 18.6933 68.6649 18.8533 68.1583 18.96C67.6649 19.0533 67.2649 19.1 66.9583 19.1C66.3316 19.1 65.7249 18.9867 65.1383 18.76C64.5516 18.5333 64.0649 18.2133 63.6783 17.8C63.3583 17.4267 63.1049 16.98 62.9183 16.46C62.7316 15.9267 62.6383 15.36 62.6383 14.76ZM66.9983 12.06C66.7049 12.06 66.4116 12.12 66.1183 12.24C65.8249 12.3467 65.5849 12.5 65.3983 12.7C65.1583 12.9533 64.9916 13.16 64.8983 13.32C64.8183 13.4667 64.7649 13.6733 64.7383 13.94C65.0716 14.0467 65.7649 14.1 66.8183 14.1C67.3916 14.1 67.8316 14.0133 68.1383 13.84C68.4583 13.6667 68.6183 13.44 68.6183 13.16C68.6183 12.88 68.4449 12.6267 68.0983 12.4C67.7516 12.1733 67.3849 12.06 66.9983 12.06Z" fill="#171717"/>
<defs>
<filter id="filter0_d_618_24" x="0" y="2" width="79" height="24" filterUnits="userSpaceOnUse" color-interpolation-filters="sRGB">
<feFlood flood-opacity="0" result="BackgroundImageFix"/>
<feColorMatrix in="SourceAlpha" type="matrix" values="0 0 0 0 0 0 0 0 0 0 0 0 0 0 0 0 0 0 127 0" result="hardAlpha"/>
<feOffset dx="2" dy="2"/>
<feComposite in2="hardAlpha" operator="out"/>
<feColorMatrix type="matrix" values="0 0 0 0 0 0 0 0 0 0 0 0 0 0 0 0 0 0 0.25 0"/>
<feBlend mode="normal" in2="BackgroundImageFix" result="effect1_dropShadow_618_24"/>
<feBlend mode="normal" in="SourceGraphic" in2="effect1_dropShadow_618_24" result="shape"/>
</filter>
</defs>
</svg>
