<svg width="162" height="60" viewBox="0 0 162 60" fill="none" xmlns="http://www.w3.org/2000/svg">
<path d="M33.416 11.504C33.768 11.92 33.944 12.352 33.944 12.8C33.944 12.992 33.928 13.2 33.896 13.424C33.896 13.616 33.88 13.792 33.848 13.952C33.752 14.304 33.544 14.64 33.224 14.96C32.968 15.152 32.616 15.296 32.168 15.392C31.944 15.456 31.72 15.504 31.496 15.536C31.272 15.568 31.032 15.616 30.776 15.68C30.552 15.712 30.328 15.728 30.104 15.728C29.88 15.728 29.64 15.728 29.384 15.728H26.936C26.36 15.76 25.784 15.776 25.208 15.776C24.664 15.776 24.12 15.776 23.576 15.776C23.608 16.768 23.624 17.84 23.624 18.992C23.624 20.112 23.608 21.424 23.576 22.928C23.576 24.432 23.56 26.176 23.528 28.16C23.528 30.144 23.528 32.448 23.528 35.072V38.72C23.528 39.04 23.544 39.28 23.576 39.44C23.576 39.568 23.576 39.696 23.576 39.824C23.576 39.92 23.56 40.048 23.528 40.208C23.464 40.496 23.416 40.832 23.384 41.216C23.384 41.376 23.368 41.536 23.336 41.696C23.304 41.824 23.256 41.968 23.192 42.128C23.064 42.256 23 42.352 23 42.416L22.856 42.704C22.696 43.024 22.392 43.328 21.944 43.616C21.24 43.968 20.456 44.048 19.592 43.856C19.048 43.792 18.632 43.648 18.344 43.424C18.056 43.136 17.848 42.848 17.72 42.56C17.528 42.208 17.416 41.872 17.384 41.552C17.288 41.264 17.24 40.96 17.24 40.64V15.968C17.048 15.968 16.648 15.968 16.04 15.968C15.432 15.968 14.776 15.968 14.072 15.968C13.4 15.936 12.76 15.904 12.152 15.872C11.544 15.84 11.128 15.808 10.904 15.776C10.712 15.744 10.408 15.696 9.992 15.632C9.608 15.568 9.288 15.504 9.032 15.44C8.36 15.248 7.832 14.944 7.448 14.528C7.096 14.112 6.92 13.648 6.92 13.136C6.92 12.944 6.92 12.752 6.92 12.56C6.92 12.368 6.952 12.192 7.016 12.032C7.112 11.648 7.368 11.328 7.784 11.072C7.912 10.976 8.104 10.864 8.36 10.736C8.648 10.576 8.92 10.464 9.176 10.4C9.56 10.272 10.04 10.176 10.616 10.112C10.872 10.08 11.128 10.064 11.384 10.064C11.64 10.064 11.912 10.064 12.2 10.064C13.32 10.064 14.376 10.064 15.368 10.064C16.392 10.064 17.464 10.048 18.584 10.016C20.44 9.984 22.28 9.984 24.104 10.016C25.96 10.016 27.8 10.048 29.624 10.112C30.04 10.144 30.44 10.192 30.824 10.256C31.208 10.32 31.592 10.432 31.976 10.592C32.264 10.688 32.536 10.816 32.792 10.976C33.048 11.104 33.256 11.28 33.416 11.504ZM37.7683 22.304C38.8243 21.792 39.9283 21.424 41.0803 21.2C42.2323 20.976 43.3683 20.928 44.4883 21.056C45.6403 21.184 46.7443 21.488 47.8003 21.968C48.8883 22.448 49.8803 23.12 50.7763 23.984C51.5123 24.72 52.1523 25.616 52.6963 26.672C53.2403 27.696 53.6403 28.704 53.8962 29.696C54.4403 31.456 54.5203 33.232 54.1363 35.024C53.7523 36.816 53.0963 38.48 52.1683 40.016C51.7203 40.72 51.1603 41.36 50.4883 41.936C49.8483 42.48 49.1603 42.928 48.4243 43.28C47.4643 43.728 46.4243 44.032 45.3043 44.192C44.1843 44.384 43.0963 44.432 42.0403 44.336C40.1203 44.24 38.4243 43.76 36.9523 42.896C35.5123 42.032 34.3443 40.928 33.4483 39.584C32.5843 38.24 32.0083 36.72 31.7203 35.024C31.4643 33.296 31.5763 31.536 32.0563 29.744C32.5683 27.824 33.3043 26.272 34.2643 25.088C35.2563 23.872 36.4243 22.944 37.7683 22.304ZM39.2083 28.736C38.7283 29.184 38.3603 29.744 38.1043 30.416C37.8483 31.088 37.6883 31.792 37.6243 32.528C37.5603 33.232 37.6083 33.952 37.7683 34.688C37.9603 35.392 38.2483 36.032 38.6323 36.608C38.9523 37.088 39.5283 37.488 40.3603 37.808C41.1923 38.128 42.0563 38.32 42.9523 38.384C43.9763 38.448 44.8723 38.176 45.6403 37.568C46.4083 36.928 46.9843 36.144 47.3683 35.216C47.7843 34.288 47.9763 33.28 47.9443 32.192C47.9123 31.104 47.6243 30.112 47.0803 29.216C46.6963 28.576 46.1523 28.112 45.4483 27.824C44.7763 27.504 44.0563 27.344 43.2883 27.344C42.5523 27.312 41.8163 27.424 41.0803 27.68C40.3443 27.904 39.7203 28.256 39.2083 28.736ZM64.3933 22.304C65.4493 21.792 66.5533 21.424 67.7053 21.2C68.8573 20.976 69.9933 20.928 71.1133 21.056C72.2653 21.184 73.3693 21.488 74.4253 21.968C75.5133 22.448 76.5053 23.12 77.4013 23.984C78.1373 24.72 78.7773 25.616 79.3213 26.672C79.8653 27.696 80.2653 28.704 80.5212 29.696C81.0653 31.456 81.1453 33.232 80.7613 35.024C80.3773 36.816 79.7213 38.48 78.7933 40.016C78.3453 40.72 77.7853 41.36 77.1133 41.936C76.4733 42.48 75.7853 42.928 75.0493 43.28C74.0893 43.728 73.0493 44.032 71.9293 44.192C70.8093 44.384 69.7213 44.432 68.6653 44.336C66.7453 44.24 65.0493 43.76 63.5773 42.896C62.1373 42.032 60.9693 40.928 60.0733 39.584C59.2093 38.24 58.6333 36.72 58.3453 35.024C58.0893 33.296 58.2013 31.536 58.6813 29.744C59.1933 27.824 59.9293 26.272 60.8893 25.088C61.8813 23.872 63.0493 22.944 64.3933 22.304ZM65.8333 28.736C65.3533 29.184 64.9853 29.744 64.7293 30.416C64.4733 31.088 64.3133 31.792 64.2493 32.528C64.1853 33.232 64.2333 33.952 64.3933 34.688C64.5853 35.392 64.8733 36.032 65.2573 36.608C65.5773 37.088 66.1533 37.488 66.9853 37.808C67.8173 38.128 68.6813 38.32 69.5773 38.384C70.6013 38.448 71.4973 38.176 72.2653 37.568C73.0333 36.928 73.6093 36.144 73.9933 35.216C74.4093 34.288 74.6013 33.28 74.5693 32.192C74.5373 31.104 74.2493 30.112 73.7053 29.216C73.3213 28.576 72.7773 28.112 72.0733 27.824C71.4013 27.504 70.6813 27.344 69.9133 27.344C69.1773 27.312 68.4413 27.424 67.7053 27.68C66.9693 27.904 66.3453 28.256 65.8333 28.736ZM91.7259 40.16C91.6939 40.32 91.6619 40.48 91.6299 40.64C91.6299 40.768 91.6299 40.912 91.6299 41.072L91.3419 42.08C91.2779 42.208 91.2299 42.288 91.1979 42.32L91.0539 42.608C90.8939 42.96 90.6059 43.248 90.1899 43.472C89.4219 43.856 88.6059 43.952 87.7419 43.76C87.1979 43.696 86.7659 43.536 86.4459 43.28C86.1259 43.056 85.9019 42.784 85.7739 42.464C85.6459 42.144 85.5499 41.824 85.4859 41.504C85.3899 41.184 85.3419 40.896 85.3419 40.64V13.76C85.3419 13.536 85.3419 13.344 85.3419 13.184C85.3739 12.992 85.4059 12.816 85.4379 12.656C85.4699 12.432 85.5019 12.24 85.5339 12.08C85.5979 11.92 85.6619 11.744 85.7259 11.552C85.8219 11.232 85.9979 10.976 86.2539 10.784C86.6379 10.496 87.0059 10.336 87.3579 10.304C87.5819 10.24 87.7899 10.208 87.9819 10.208C88.1739 10.176 88.3979 10.16 88.6539 10.16C89.1019 10.16 89.6139 10.288 90.1899 10.544C90.6379 10.8 90.9579 11.152 91.1499 11.6C91.4699 12.24 91.6299 12.832 91.6299 13.376C91.6619 13.696 91.6779 14.176 91.6779 14.816C91.7099 15.456 91.7259 15.936 91.7259 16.256V16.448C91.7899 17.472 91.8219 18.464 91.8219 19.424C91.8219 20.352 91.8059 21.376 91.7739 22.496C91.7739 23.584 91.7579 24.64 91.7259 25.664C91.7259 26.656 91.7259 27.648 91.7259 28.64V38.72C91.7259 38.848 91.7259 38.976 91.7259 39.104C91.7579 39.2 91.7739 39.312 91.7739 39.44C91.7739 39.76 91.7579 40 91.7259 40.16ZM101.702 25.808C101.702 26.704 101.702 27.712 101.702 28.832C101.734 29.952 101.75 31.12 101.75 32.336C101.75 33.52 101.75 34.704 101.75 35.888C101.75 37.04 101.734 38.112 101.702 39.104C101.67 39.584 101.622 40.112 101.558 40.688C101.494 41.232 101.366 41.744 101.174 42.224C100.982 42.704 100.678 43.104 100.262 43.424C99.8784 43.712 99.3504 43.84 98.6784 43.808C97.6864 43.744 96.9664 43.312 96.5184 42.512C96.1024 41.712 95.8624 40.592 95.7984 39.152C95.7984 38.416 95.7824 37.568 95.7504 36.608C95.7504 35.648 95.7344 34.672 95.7024 33.68C95.7024 32.688 95.7024 31.728 95.7024 30.8C95.7024 29.84 95.7024 28.976 95.7024 28.208C95.7024 27.76 95.6864 27.216 95.6544 26.576C95.6544 25.936 95.6704 25.28 95.7024 24.608C95.7344 23.936 95.8144 23.296 95.9424 22.688C96.0704 22.048 96.2784 21.52 96.5664 21.104C96.7904 20.848 97.1104 20.656 97.5264 20.528C97.9424 20.368 98.3744 20.288 98.8224 20.288C99.3024 20.288 99.7504 20.368 100.166 20.528C100.614 20.688 100.934 20.912 101.126 21.2C101.254 21.392 101.35 21.664 101.414 22.016C101.478 22.368 101.526 22.768 101.558 23.216C101.622 23.632 101.654 24.08 101.654 24.56C101.686 25.008 101.702 25.424 101.702 25.808ZM99.8784 16.112C98.8864 16.368 98.0544 16.272 97.3824 15.824C96.7424 15.344 96.3424 14.64 96.1824 13.712C96.0544 13.04 96.1024 12.448 96.3264 11.936C96.5504 11.424 96.8864 11.04 97.3344 10.784C97.7824 10.496 98.2944 10.368 98.8704 10.4C99.4464 10.432 100.022 10.656 100.598 11.072C101.142 11.456 101.526 11.904 101.75 12.416C102.006 12.928 102.086 13.424 101.99 13.904C101.926 14.384 101.718 14.832 101.366 15.248C101.014 15.632 100.518 15.92 99.8784 16.112ZM120.896 10.448C121.504 10.288 122.032 10.272 122.48 10.4C122.96 10.496 123.36 10.704 123.68 11.024C124.032 11.344 124.288 11.744 124.448 12.224C124.64 12.704 124.736 13.232 124.736 13.808C124.768 15.408 124.768 16.656 124.736 17.552C124.736 18.448 124.736 19.232 124.736 19.904V34.64C124.736 36.368 124.736 37.808 124.736 38.96C124.736 40.112 124.672 41.056 124.544 41.792C124.448 42.496 124.256 43.024 123.968 43.376C123.712 43.728 123.312 43.968 122.768 44.096C122.224 44.256 121.504 44.336 120.608 44.336C119.744 44.336 118.656 44.336 117.344 44.336C113.888 44.336 111.152 43.52 109.136 41.888C107.152 40.256 106.096 37.664 105.968 34.112C105.904 32.576 106.096 31.168 106.544 29.888C106.992 28.608 107.648 27.52 108.512 26.624C109.408 25.696 110.496 24.992 111.776 24.512C113.088 24 114.576 23.76 116.24 23.792H118.88V15.2C118.88 14.688 118.88 14.192 118.88 13.712C118.88 13.2 118.928 12.736 119.024 12.32C119.12 11.872 119.312 11.488 119.6 11.168C119.888 10.848 120.32 10.608 120.896 10.448ZM112.544 37.088C113.216 38.016 114.432 38.528 116.192 38.624C116.544 38.656 116.88 38.672 117.2 38.672C117.52 38.64 117.808 38.592 118.064 38.528C118.352 38.496 118.624 38.448 118.88 38.384V29.504C117.76 29.312 116.736 29.2 115.808 29.168C114.912 29.104 114.016 29.424 113.12 30.128C112.64 30.512 112.272 31.008 112.016 31.616C111.76 32.192 111.616 32.816 111.584 33.488C111.552 34.128 111.616 34.768 111.776 35.408C111.936 36.048 112.192 36.608 112.544 37.088ZM134.992 40.16C134.96 40.32 134.928 40.48 134.896 40.64C134.896 40.768 134.896 40.912 134.896 41.072L134.608 42.08C134.544 42.208 134.496 42.288 134.464 42.32L134.32 42.608C134.16 42.96 133.872 43.248 133.456 43.472C132.688 43.856 131.872 43.952 131.008 43.76C130.464 43.696 130.032 43.536 129.712 43.28C129.392 43.056 129.168 42.784 129.04 42.464C128.912 42.144 128.816 41.824 128.752 41.504C128.656 41.184 128.608 40.896 128.608 40.64V13.76C128.608 13.536 128.608 13.344 128.608 13.184C128.64 12.992 128.672 12.816 128.704 12.656C128.736 12.432 128.768 12.24 128.8 12.08C128.864 11.92 128.928 11.744 128.992 11.552C129.088 11.232 129.264 10.976 129.52 10.784C129.904 10.496 130.272 10.336 130.624 10.304C130.848 10.24 131.056 10.208 131.248 10.208C131.44 10.176 131.664 10.16 131.92 10.16C132.368 10.16 132.88 10.288 133.456 10.544C133.904 10.8 134.224 11.152 134.416 11.6C134.736 12.24 134.896 12.832 134.896 13.376C134.928 13.696 134.944 14.176 134.944 14.816C134.976 15.456 134.992 15.936 134.992 16.256V16.448C135.056 17.472 135.088 18.464 135.088 19.424C135.088 20.352 135.072 21.376 135.04 22.496C135.04 23.584 135.024 24.64 134.992 25.664C134.992 26.656 134.992 27.648 134.992 28.64V38.72C134.992 38.848 134.992 38.976 134.992 39.104C135.024 39.2 135.04 39.312 135.04 39.44C135.04 39.76 135.024 40 134.992 40.16ZM155.528 37.424C155.912 37.328 156.296 37.264 156.68 37.232C157.096 37.2 157.464 37.248 157.784 37.376C158.136 37.504 158.424 37.728 158.648 38.048C158.872 38.336 158.984 38.752 158.984 39.296C158.984 39.68 158.888 40.048 158.696 40.4C158.504 40.752 158.264 41.072 157.976 41.36C157.688 41.648 157.368 41.904 157.016 42.128C156.664 42.32 156.328 42.48 156.008 42.608C155.08 43.024 154.008 43.344 152.792 43.568C151.608 43.792 150.376 43.872 149.096 43.808C147.368 43.744 145.704 43.408 144.104 42.8C142.536 42.16 141.304 41.12 140.408 39.68C139.576 38.272 139.08 36.704 138.92 34.976C138.76 33.248 138.84 31.616 139.16 30.08C139.512 28.224 140.104 26.72 140.936 25.568C141.8 24.384 142.824 23.44 144.008 22.736C145.448 21.904 147.064 21.472 148.856 21.44C150.648 21.408 152.36 21.76 153.992 22.496C155.08 22.976 156.056 23.632 156.92 24.464C157.784 25.264 158.44 26.24 158.888 27.392C159.016 27.68 159.112 28.032 159.176 28.448C159.272 28.864 159.336 29.312 159.368 29.792C159.4 30.24 159.4 30.688 159.368 31.136C159.336 31.584 159.256 31.984 159.128 32.336C158.936 32.912 158.696 33.36 158.408 33.68C158.12 34 157.752 34.24 157.304 34.4C156.856 34.56 156.312 34.672 155.672 34.736C155.064 34.768 154.328 34.8 153.464 34.832C152.696 34.864 151.976 34.88 151.304 34.88C150.632 34.88 149.944 34.88 149.24 34.88C148.536 34.848 147.8 34.832 147.032 34.832C146.296 34.8 145.464 34.768 144.536 34.736C144.44 35.376 144.52 35.936 144.776 36.416C145.064 36.864 145.448 37.248 145.928 37.568C146.408 37.856 146.952 38.08 147.56 38.24C148.168 38.4 148.76 38.496 149.336 38.528C150.424 38.592 151.464 38.512 152.456 38.288C153.448 38.032 154.472 37.744 155.528 37.424ZM153.464 28.112C152.856 27.408 152.216 26.896 151.544 26.576C151.032 26.352 150.488 26.256 149.912 26.288C149.368 26.288 148.84 26.368 148.328 26.528C147.4 26.752 146.616 27.232 145.976 27.968C145.912 28.032 145.8 28.192 145.64 28.448C145.48 28.672 145.32 28.912 145.16 29.168C145.032 29.424 144.936 29.664 144.872 29.888C144.808 30.112 144.84 30.224 144.968 30.224H154.376C154.344 29.776 154.264 29.408 154.136 29.12C154.008 28.8 153.784 28.464 153.464 28.112Z" fill="#FBFBFB"/>
<rect y="55" width="73" height="5" rx="2.5" fill="#FBFBFB"/>
<rect x="80" y="55" width="52" height="5" rx="2.5" fill="#FBFBFB"/>
<rect x="140" y="55" width="22" height="5" rx="2.5" fill="#FBFBFB"/>
</svg>
